<svg xmlns="http://www.w3.org/2000/svg" viewBox="0 0 78.1 142"><defs><style>.cls-1{opacity:0.06;}.cls-2,.cls-3,.cls-5{fill:none;stroke-linecap:round;stroke-linejoin:round;stroke-width:3px;}.cls-2{stroke:#000;}.cls-3{stroke:#fcbbc9;}.cls-4{fill:#fff;}.cls-5{stroke:#dc3545;}</style></defs><title>mismatch-arrow</title><g id="Layer_2" data-name="Layer 2"><g id="Layer_1-2" data-name="Layer 1"><g class="cls-1"><polyline class="cls-2" points="68.22 8.1 64.79 8.92 61.54 10.31 58.17 11.41 55.15 13.27 52.11 15.05 49.31 17.2 46.67 19.54 44.12 21.97 41.68 24.52 39.69 27.44 37.63 30.3 35.97 33.41 34.31 36.51 32.59 39.61 31.39 42.94 30.21 46.27 29.36 49.7 28.51 53.14 27.87 56.61 27.43 60.12 27.26 63.66 26.72 67.16 26.93 70.7 26.64 74.3 26.58 77.9 27.15 81.47 27.07 85.09 27.64 88.65 28.53 92.15 29.11 95.7 30.3 99.1 31.51 102.48 32.84 105.82 34.24 109.14 36.29 112.11 38.22 115.14 40.34 118.06 42.89 120.62 45.58 123.02 48.59 125 51.39 127.28 54.55 129.01 57.9 130.34 61.32 131.42 64.77 132.36 68.25 133.1"/><polygon points="38.94 76.17 37.38 79.38 35.05 82.05 32.43 84.5 29.27 86.28 25.69 86.81 22.13 86.74 18.57 86.2 15.33 84.6 12.9 81.96 10.63 79.23 9.29 75.93 8.74 72.42 8.9 68.88 9.74 65.43 11.41 62.27 13.5 59.34 16.34 57.11 19.68 55.81 23.12 54.99 26.71 54.52 30.18 55.57 33.42 57.1 36.1 59.49 38.09 62.45 39.45 65.73 40.3 69.21 39.81 72.75 38.94 76.17"/><polygon class="cls-2" points="38.94 76.17 37.38 79.38 35.05 82.05 32.43 84.5 29.27 86.28 25.69 86.81 22.13 86.74 18.57 86.2 15.33 84.6 12.9 81.96 10.63 79.23 9.29 75.93 8.74 72.42 8.9 68.88 9.74 65.43 11.41 62.27 13.5 59.34 16.34 57.11 19.68 55.81 23.12 54.99 26.71 54.52 30.18 55.57 33.42 57.1 36.1 59.49 38.09 62.45 39.45 65.73 40.3 69.21 39.81 72.75 38.94 76.17"/></g><polyline class="cls-3" points="75.55 6.15 72.03 6.75 68.62 7.82 65.11 8.49 61.81 9.87 58.46 11.11 55.25 12.67 52.13 14.39 49.04 16.16 46.01 18.04 43.29 20.35 40.5 22.57 38.02 25.13 35.55 27.68 33.02 30.22 30.97 33.15 28.96 36.11 27.28 39.26 25.67 42.45 24.29 45.75 23.17 49.15 22.38 52.63 21.28 56.03 20.97 59.61 20.24 63.1 19.76 66.65 19.93 70.23 19.45 73.87 19.63 77.52 20.14 81.13 20.34 84.78 21.16 88.33 22.01 91.87 22.98 95.37 24.04 98.87 25.75 102.1 27.35 105.37 29.13 108.56 31.36 111.46 33.74 114.23 36.47 116.64 38.94 119.34 41.81 121.6 44.91 123.52 48.11 125.26 51.33 126.93 54.58 128.56 57.97 129.88 61.28 131.45 64.8 132.41 68.36 133.23 71.96 133.76 75.56 134.23"/><polyline class="cls-3" points="61.87 1.5 65.42 2.55 68.85 4.01 72.47 4.84 75.99 5.96 73.08 8.53 70.57 11.51 67.86 14.31 64.89 16.85"/><polyline class="cls-3" points="68.73 125.3 71.39 128.2 73.74 131.39 76.6 134.16 72.97 136.21 69.28 138.12 65.86 140.5"/><polygon class="cls-4" points="34.56 69.53 34.21 73.21 32.87 76.64 31.13 79.93 28.62 82.73 25.29 84.46 21.77 85.61 18.09 86.33 14.35 85.95 10.97 84.32 7.71 82.55 5.11 79.88 3.2 76.7 1.98 73.21 1.5 69.53 1.97 65.85 3 62.26 5.02 59.1 7.86 56.69 10.97 54.73 14.34 53.06 18.09 52.87 21.83 53.18 25.34 54.48 28.43 56.57 31.04 59.21 33.22 62.24 34.13 65.87 34.56 69.53"/><polygon class="cls-5" points="34.56 69.53 34.21 73.21 32.87 76.64 31.13 79.93 28.62 82.73 25.29 84.46 21.77 85.61 18.09 86.33 14.35 85.95 10.97 84.32 7.71 82.55 5.11 79.88 3.2 76.7 1.98 73.21 1.5 69.53 1.97 65.85 3 62.26 5.02 59.1 7.86 56.69 10.97 54.73 14.34 53.06 18.09 52.87 21.83 53.18 25.34 54.48 28.43 56.57 31.04 59.21 33.22 62.24 34.13 65.87 34.56 69.53"/><polyline class="cls-5" points="9.2 66.09 12.62 66.07 16.03 66.22 19.45 65.98 22.87 66.13 26.29 65.95"/><polyline class="cls-5" points="26.29 72.21 22.87 71.93 19.46 72.19 16.04 71.92 12.62 71.96 9.2 72.06"/><polyline class="cls-5" points="13.86 77 15.53 74.01 16.71 70.79 18.37 67.79 19.76 64.67 21.09 61.51"/></g></g></svg>